{"title":"The Following S01E04 HDTV x264 AAC-V3nom","uid":8133826,"size":127373834,"categoryP":"video","categoryS":"tv_shows","magnet":"?xt=urn:btih:f992bb2ff9e9c57be602cbbf11d24b0da6b8b779&amp;dn=The+Following+S01E04+HDTV+x264+AAC-V3nom&amp;tr=udp%3A%2F%2Ftracker.openbittorrent.com%3A80&amp;tr=udp%3A%2F%2Fopen.demonii.com%3A1337&amp;tr=udp%3A%2F%2Ftracker.coppersurfer.tk%3A6969&amp;tr=udp%3A%2F%2Fexodus.desync.com%3A6969","seeders":4,"leechers":0,"uploader":"V3nom","files":-1,"time":1360676788,"description":"[img]http://img51.imageshack.us/img51/9985/thefollowing.jpg[/img]\n\n[size=200][color=black]TV INFO[/color][/size]\n\n[code]The Following S01E04 HDTV x264 AAC-V3nom\n\nFormat                                   : MPEG-4\nFormat profile                           : Base Media / Version 2\nCodec ID                                 : mp42\nFile size                                : 121 MiB\nDuration                                 : 43mn 9s\nOverall bit rate mode                    : Variable\nOverall bit rate                         : 393 Kbps\nEncoded date                             : UTC 2013-02-12 11:14:48\nTagged date                              : UTC 2013-02-12 11:36:34\n\nVideo\nID                                       : 1\nFormat                                   : AVC\nFormat/Info                              : Advanced Video Codec\nFormat profile                           : &lt;a class=&quot;__cf_email__&quot; href=&quot;/cdn-cgi/l/email-protection&quot; data-cfemail=&quot;6e230f07002e225c405f&quot;&gt;[email&amp;#160;protected]&lt;/a&gt;&lt;script cf-hash='f9e31' type=&quot;text/javascript&quot;&gt;\n/* &lt;![CDATA[ */!function(){try{var t=&quot;currentScript&quot;in document?document.currentScript:function(){for(var t=document.getElementsByTagName(&quot;script&quot;),e=t.length;e--;)if(t[e].getAttribute(&quot;cf-hash&quot;))return t[e]}();if(t&amp;&amp;t.previousSibling){var e,r,n,i,c=t.previousSibling,a=c.getAttribute(&quot;data-cfemail&quot;);if(a){for(e=&quot;&quot;,r=parseInt(a.substr(0,2),16),n=2;a.length-n;n+=2)i=parseInt(a.substr(n,2),16)^r,e+=String.fromCharCode(i);e=document.createTextNode(e),c.parentNode.replaceChild(e,c)}}}catch(u){}}();/* ]]&gt; */&lt;/script&gt;\nFormat settings, CABAC                   : Yes\nFormat settings, ReFrames                : 4 frames\nCodec ID                                 : avc1\nCodec ID/Info                            : Advanced Video Coding\nDuration                                 : 43mn 9s\nBit rate mode                            : Variable\nBit rate                                 : 289 Kbps\nWidth                                    : 640 pixels\nHeight                                   : 256 pixels\nDisplay aspect ratio                     : 16:9\nOriginal display aspect ratio            : 16:9\nFrame rate mode                          : Variable\nFrame rate                               : 23.976 fps\nMinimum frame rate                       : 23.974 fps\nMaximum frame rate                       : 23.981 fps\nColor space                              : YUV\nChroma subsampling                       : 4:2:0\nBit depth                                : 8 bits\nScan type                                : Progressive\nBits/(Pixel*Frame)                       : 0.074\nStream size                              : 90.0 MiB (74%)\nWriting library                          : x264 core 112\n\nAudio\nID                                       : 2\nFormat                                   : AAC\nFormat/Info                              : Advanced Audio Codec\nFormat profile                           : LC\nCodec ID                                 : 40\nDuration                                 : 43mn 8s\nBit rate mode                            : Variable\nBit rate                                 : 96.0 Kbps\nMaximum bit rate                         : 156 Kbps\nChannel(s)                               : 2 channels\nChannel positions                        : Front: L R\nSampling rate                            : 48.0 KHz\nCompression mode                         : Lossy\nDelay relative to video                  : 83ms\nStream size                              : 29.6 MiB (24%)\nEncoded date                             : UTC 2013-02-12 11:14:48\nTagged date                              : UTC 2013-02-12 11:36:32[/code]\n\n[size=200][color=black]SOURCE[/color][/size]\n\n[code]The.Following.S01E04.HDTV.x264-LOL(THANKS)[/code]\n\n[size=200][color=black]SCREENSHOTS[/color][/size]\n\n[img]http://img855.imageshack.us/img855/4100/thefollowings01e04hdtvx.jpg[/img]\n\n[img]http://kastatic.com/i2/users/133df62bbf28e62494bb17fe11078f1a.gif[/img][img]http://kastatic.com/i2/users/133df62bbf28e62494bb17fe11078f1a.gif[/img]\n","torrent":{"xt":"urn:btih:f992bb2ff9e9c57be602cbbf11d24b0da6b8b779","amp;dn":"The+Following+S01E04+HDTV+x264+AAC-V3nom","amp;tr":["udp%3A%2F%2Ftracker.openbittorrent.com%3A80","udp%3A%2F%2Fopen.demonii.com%3A1337","udp%3A%2F%2Ftracker.coppersurfer.tk%3A6969","udp%3A%2F%2Fexodus.desync.com%3A6969"],"infoHash":"f992bb2ff9e9c57be602cbbf11d24b0da6b8b779","infoHashBuffer":{"type":"Buffer","data":[249,146,187,47,249,233,197,123,230,2,203,191,17,210,75,13,166,184,183,121]},"announce":[],"urlList":[]}}